<svg width="25" height="24" viewBox="0 0 25 24" fill="none" xmlns="http://www.w3.org/2000/svg">
<path d="M6.5 20.088H9.11029C9.45063 20.088 9.78888 20.1285 10.1188 20.2095L12.8769 20.8798C13.4753 21.0255 14.0988 21.0397 14.7035 20.9223L17.753 20.329C18.5585 20.1721 19.2996 19.7863 19.8803 19.2214L22.0379 17.1226C22.654 16.5242 22.654 15.5533 22.0379 14.9539C21.4832 14.4143 20.6047 14.3536 19.9771 14.8112L17.4626 16.6457C17.1025 16.909 16.6643 17.0507 16.2137 17.0507H13.7855L15.3311 17.0506C16.2022 17.0506 16.9079 16.3642 16.9079 15.5168V15.21C16.9079 14.5064 16.4156 13.8928 15.7141 13.7227L13.3286 13.1426C12.9404 13.0485 12.5428 13.0009 12.1431 13.0009C11.1783 13.0009 9.43189 13.7997 9.43189 13.7997L6.5 15.0258M2.5 14.6009L2.5 20.4009C2.5 20.9609 2.5 21.2409 2.60899 21.4549C2.70487 21.643 2.85785 21.796 3.04601 21.8919C3.25992 22.0009 3.53995 22.0009 4.1 22.0009H4.9C5.46005 22.0009 5.74008 22.0009 5.95399 21.8919C6.14215 21.796 6.29513 21.643 6.39101 21.4549C6.5 21.2409 6.5 20.9609 6.5 20.4009V14.6009C6.5 14.0408 6.5 13.7608 6.39101 13.5469C6.29513 13.3587 6.14215 13.2057 5.95399 13.1099C5.74008 13.0009 5.46005 13.0009 4.9 13.0009H4.1C3.53995 13.0009 3.25992 13.0009 3.04601 13.1099C2.85785 13.2057 2.70487 13.3587 2.60899 13.5469C2.5 13.7608 2.5 14.0408 2.5 14.6009ZM17.6914 3.59313C17.0946 2.34427 15.7186 1.68266 14.3804 2.32124C13.0423 2.95983 12.4722 4.47425 13.0325 5.8037C13.3787 6.62533 14.3707 8.22087 15.0781 9.3199C15.3394 9.72598 15.4701 9.92902 15.661 10.0478C15.8247 10.1497 16.0297 10.2046 16.2224 10.1982C16.4471 10.1908 16.6618 10.0803 17.0911 9.8593C18.2532 9.26118 19.9101 8.37542 20.6208 7.837C21.7707 6.96579 22.0556 5.36445 21.1947 4.14711C20.3337 2.92978 18.8327 2.80999 17.6914 3.59313Z" stroke-linecap="round" stroke-linejoin="round"/>
</svg>
