<svg width="22" height="28" viewBox="0 0 22 28" fill="none" xmlns="http://www.w3.org/2000/svg">
<path d="M13.5 1.83691V7.00009C13.5 7.70015 13.5 8.05019 13.6362 8.31758C13.7561 8.55278 13.9473 8.744 14.1825 8.86385C14.4499 9.00009 14.7999 9.00009 15.5 9.00009H20.6632M7.25 17.75L11 21.5M11 21.5L14.75 17.75M11 21.5L11 14M13.5 1.5H7C4.8998 1.5 3.8497 1.5 3.04754 1.90873C2.34193 2.26825 1.76825 2.84193 1.40873 3.54754C1 4.3497 1 5.3998 1 7.5V20.5C1 22.6002 1 23.6503 1.40873 24.4525C1.76825 25.1581 2.34193 25.7317 3.04754 26.0913C3.8497 26.5 4.8998 26.5 7 26.5H15C17.1002 26.5 18.1503 26.5 18.9525 26.0913C19.6581 25.7317 20.2318 25.1581 20.5913 24.4525C21 23.6503 21 22.6002 21 20.5V9L13.5 1.5Z" stroke-linecap="round" stroke-linejoin="round"/>
</svg>
