<svg width="24" height="24" viewBox="0 0 24 24" fill="none" xmlns="http://www.w3.org/2000/svg">
<path d="M14.0848 5.92188C15.0616 6.11244 15.9592 6.59013 16.6629 7.29381C17.3666 7.99749 17.8443 8.89514 18.0348 9.87187M14.0848 1.92188C16.1141 2.14731 18.0064 3.05605 19.4511 4.49888C20.8957 5.94172 21.8068 7.83288 22.0348 9.86187M10.2618 13.7849C9.06022 12.5834 8.11143 11.2247 7.41543 9.7751C7.35557 9.65041 7.32563 9.58807 7.30264 9.50918C7.22091 9.22882 7.27961 8.88457 7.44963 8.64714C7.49747 8.58032 7.55462 8.52317 7.66893 8.40886C8.01854 8.05925 8.19334 7.88445 8.30763 7.70867C8.73862 7.04578 8.73862 6.1912 8.30763 5.52831C8.19334 5.35253 8.01854 5.17773 7.66893 4.82812L7.47406 4.63325C6.94262 4.10181 6.6769 3.83609 6.39152 3.69174C5.82396 3.40467 5.15369 3.40467 4.58613 3.69174C4.30075 3.83609 4.03503 4.10181 3.50359 4.63325L3.34595 4.79088C2.81633 5.32051 2.55152 5.58532 2.34927 5.94535C2.12485 6.34486 1.96349 6.96535 1.96485 7.42357C1.96608 7.83652 2.04618 8.11874 2.20639 8.68319C3.06736 11.7166 4.69184 14.5789 7.07982 16.9669C9.4678 19.3549 12.3302 20.9794 15.3636 21.8403C15.928 22.0006 16.2102 22.0807 16.6232 22.0819C17.0814 22.0833 17.7019 21.9219 18.1014 21.6975C18.4614 21.4952 18.7262 21.2304 19.2559 20.7008L19.4135 20.5432C19.9449 20.0117 20.2107 19.746 20.355 19.4606C20.6421 18.893 20.6421 18.2228 20.355 17.6552C20.2107 17.3698 19.9449 17.1041 19.4135 16.5727L19.2186 16.3778C18.869 16.0282 18.6942 15.8534 18.5184 15.7391C17.8555 15.3081 17.001 15.3081 16.3381 15.7391C16.1623 15.8534 15.9875 16.0282 15.6379 16.3778C15.5236 16.4921 15.4664 16.5493 15.3996 16.5971C15.1622 16.7671 14.8179 16.8258 14.5376 16.7441C14.4587 16.7211 14.3963 16.6912 14.2716 16.6313C12.822 15.9353 11.4634 14.9865 10.2618 13.7849Z" stroke-width="1.5" stroke-linecap="round" stroke-linejoin="round"/>
</svg>
