<svg width="24" height="24" viewBox="0 0 24 24" fill="none" xmlns="http://www.w3.org/2000/svg">
<path d="M17.7448 2.81445C18.7096 1.81797 20.3036 1.80508 21.2844 2.78582C22.2382 3.7397 22.256 5.28067 21.3244 6.25627L18.5457 9.16604C18.3279 9.39411 18.219 9.50815 18.1519 9.64171C18.0925 9.75994 18.0571 9.88879 18.0479 10.0208C18.0375 10.1699 18.0729 10.3235 18.1438 10.6308L19.8717 18.1184C19.9445 18.4338 19.9809 18.5915 19.9691 18.744C19.9588 18.8791 19.921 19.0106 19.8583 19.1306C19.7874 19.2662 19.673 19.3806 19.4441 19.6095L19.0733 19.9803C18.4671 20.5864 18.1641 20.8895 17.8539 20.9444C17.583 20.9923 17.3044 20.9265 17.0835 20.7625C16.8306 20.5747 16.6951 20.1681 16.424 19.3549L14.4143 13.3256L11.0689 16.6709C10.8693 16.8706 10.7694 16.9704 10.7026 17.088C10.6435 17.1922 10.6035 17.3061 10.5846 17.4244C10.5633 17.558 10.5789 17.6983 10.6101 17.979L10.7938 19.6324C10.825 19.913 10.8406 20.0534 10.8193 20.1869C10.8004 20.3052 10.7605 20.4192 10.7013 20.5233C10.6345 20.6409 10.5347 20.7407 10.335 20.9404L10.1375 21.1379C9.6644 21.611 9.42787 21.8475 9.16502 21.916C8.93448 21.9761 8.69005 21.9519 8.47577 21.8478C8.23146 21.7291 8.04591 21.4507 7.67481 20.8941L6.10649 18.5416C6.04019 18.4421 6.00704 18.3924 5.96855 18.3473C5.93436 18.3073 5.89707 18.27 5.857 18.2358C5.81191 18.1973 5.76218 18.1641 5.66273 18.0978L3.31025 16.5295C2.7536 16.1584 2.47527 15.9729 2.35655 15.7286C2.25242 15.5143 2.22822 15.2699 2.2883 15.0393C2.35681 14.7765 2.59334 14.5399 3.06639 14.0669L3.2639 13.8694C3.46359 13.6697 3.56343 13.5698 3.68101 13.503C3.78517 13.4439 3.89912 13.4039 4.01742 13.385C4.15095 13.3637 4.29129 13.3793 4.57196 13.4105L6.22535 13.5942C6.50602 13.6254 6.64636 13.641 6.77989 13.6197C6.89819 13.6008 7.01214 13.5609 7.1163 13.5017C7.23388 13.4349 7.33372 13.3351 7.53341 13.1354L10.8787 9.79006L4.84945 7.7803C4.03623 7.50923 3.62961 7.37369 3.44182 7.12078C3.27783 6.89994 3.21206 6.62131 3.25997 6.35045C3.31483 6.04026 3.6179 5.73718 4.22405 5.13104L4.59482 4.76027C4.82371 4.53137 4.93816 4.41693 5.07375 4.34604C5.19376 4.28329 5.32527 4.24558 5.46029 4.23518C5.61284 4.22343 5.77055 4.25982 6.08596 4.33261L13.5451 6.05395C13.8551 6.12548 14.01 6.16124 14.1597 6.1506C14.3041 6.14033 14.4446 6.0988 14.5715 6.02888C14.7028 5.95647 14.8135 5.8422 15.0347 5.61366L17.7448 2.81445Z" stroke-linecap="round" stroke-linejoin="round"/>
</svg>
