<svg width="24" height="24" viewBox="0 0 24 24" xmlns="http://www.w3.org/2000/svg">
<path d="M1.99993 6.01041L1.25009 6.02579C1.24596 5.82425 1.32312 5.62954 1.46419 5.48554C1.60526 5.34155 1.79836 5.26041 1.99993 5.26041V6.01041ZM5.5804 6.01041V5.26041C5.98899 5.26041 6.3224 5.58747 6.33026 5.99599L5.5804 6.01041ZM10.3995 15.0032H11.1495C11.1495 15.2342 11.043 15.4522 10.861 15.5944C10.679 15.7365 10.4416 15.7868 10.2176 15.7308L10.3995 15.0032ZM10.3995 6.01041H9.64945C9.64945 5.5962 9.98524 5.26041 10.3995 5.26041V6.01041ZM13.7613 6.01041V5.26041C14.1756 5.26041 14.5113 5.5962 14.5113 6.01041H13.7613ZM13.7613 11.1417L13.8408 11.8875C13.6293 11.91 13.4181 11.8417 13.2599 11.6994C13.1017 11.5572 13.0113 11.3545 13.0113 11.1417H13.7613ZM18.7053 6L17.9835 5.79627C18.0747 5.47314 18.3695 5.25 18.7053 5.25V6ZM22.0568 6V5.25C22.282 5.25 22.4954 5.35125 22.6378 5.52577C22.7803 5.70028 22.8367 5.92958 22.7916 6.15028L22.0568 6ZM20.4532 9.71737L19.8397 9.28601L20.4532 9.71737ZM17.4979 12.4844L17.1637 13.1558C16.9193 13.0341 16.7602 12.7892 16.7486 12.5163C16.737 12.2435 16.8746 11.9859 17.1078 11.8438L17.4979 12.4844ZM22.8374 19L23.5614 18.8043C23.6223 19.0296 23.5748 19.2705 23.4329 19.4559C23.291 19.6413 23.0709 19.75 22.8374 19.75V19ZM19.1424 19V19.75C18.8165 19.75 18.5278 19.5394 18.4283 19.229L19.1424 19ZM13.7613 14.3579H13.0113C13.0113 14.146 13.1009 13.9441 13.258 13.8019C13.415 13.6597 13.6249 13.5906 13.8357 13.6116L13.7613 14.3579ZM13.7613 19H14.5113C14.5113 19.4142 14.1756 19.75 13.7613 19.75V19ZM13.345 19.75C9.60203 19.75 6.58652 18.4619 4.49724 16.0395C2.42289 13.6344 1.33566 10.1975 1.25009 6.02579L2.74977 5.99503C2.83073 9.94176 3.8564 12.9998 5.63313 15.0598C7.39493 17.1025 9.96869 18.25 13.345 18.25V19.75ZM1.99993 5.26041H5.5804V6.76041H1.99993V5.26041ZM6.33026 5.99599C6.44077 11.7428 8.9409 13.8655 10.5814 14.2756L10.2176 15.7308C7.69467 15.1001 4.949 12.1851 4.83054 6.02483L6.33026 5.99599ZM9.64945 15.0032V6.01041H11.1495V15.0032H9.64945ZM10.3995 5.26041H13.7613V6.76041H10.3995V5.26041ZM14.5113 6.01041V11.1417H13.0113V6.01041H14.5113ZM13.6818 10.3959C14.4668 10.3123 15.3669 9.80178 16.1852 8.94032C16.9937 8.0893 17.6537 6.96472 17.9835 5.79627L19.4271 6.20373C19.0283 7.61655 18.2416 8.95354 17.2728 9.97341C16.3139 10.9828 15.1063 11.7526 13.8408 11.8875L13.6818 10.3959ZM18.7053 5.25H22.0568V6.75H18.7053V5.25ZM22.7916 6.15028C22.4976 7.58749 21.9105 8.94865 21.0668 10.1487L19.8397 9.28601C20.5648 8.25467 21.0694 7.08488 21.322 5.84972L22.7916 6.15028ZM21.0668 10.1487C20.2231 11.3488 19.1409 12.362 17.888 13.125L17.1078 11.8438C18.1846 11.1881 19.1146 10.3174 19.8397 9.28601L21.0668 10.1487ZM17.8321 11.813C19.227 12.5072 20.4588 13.4893 21.4463 14.6943L20.2861 15.6451C19.433 14.604 18.3688 13.7556 17.1637 13.1558L17.8321 11.813ZM21.4463 14.6943C22.4339 15.8994 23.1548 17.3002 23.5614 18.8043L22.1134 19.1957C21.7621 17.8964 21.1393 16.6862 20.2861 15.6451L21.4463 14.6943ZM22.8374 19.75H19.1424V18.25H22.8374V19.75ZM18.4283 19.229C17.7103 16.9901 15.9472 15.3293 13.687 15.1042L13.8357 13.6116C16.8004 13.9069 18.9925 16.0764 19.8566 18.771L18.4283 19.229ZM14.5113 14.3579V19H13.0113V14.3579H14.5113ZM13.7613 19.75H13.3554V18.25H13.7613V19.75ZM13.3554 19.75H13.345V18.25H13.3554V19.75Z"/>
</svg>
