<svg width="80" height="80" viewBox="0 0 80 80" fill="none" xmlns="http://www.w3.org/2000/svg">
<g clip-path="url(#paint0_angular_4804_18669_clip_path)" data-figma-skip-parse="true"><g transform="matrix(0 0.039746 0.039746 0 39.7461 39.746)"><foreignObject x="-1020" y="-1020" width="2040" height="2040"><div xmlns="http://www.w3.org/1999/xhtml" style="background:conic-gradient(from 90deg,rgba(237, 104, 36, 1) 0deg,rgba(237, 104, 36, 1) 63.243deg,rgba(255, 255, 255, 0) 360deg);height:100%;width:100%;opacity:1"></div></foreignObject></g></g><path d="M0.000106812 39.746C0.000106812 61.6972 17.795 79.4921 39.7461 79.4921C61.6973 79.4921 79.4922 61.6972 79.4922 39.746C79.4922 17.7949 61.6973 0 39.7461 0C17.795 0 0.000106812 17.7949 0.000106812 39.746ZM67.6071 39.746C67.6071 55.1332 55.1333 67.607 39.7461 67.607C24.359 67.607 11.8852 55.1332 11.8852 39.746C11.8852 24.3589 24.359 11.8851 39.7461 11.8851C55.1333 11.8851 67.6071 24.3589 67.6071 39.746Z" data-figma-gradient-fill="{&#34;type&#34;:&#34;GRADIENT_ANGULAR&#34;,&#34;stops&#34;:[{&#34;color&#34;:{&#34;r&#34;:0.92941176891326904,&#34;g&#34;:0.40784314274787903,&#34;b&#34;:0.14117647707462311,&#34;a&#34;:1.0},&#34;position&#34;:0.0},{&#34;color&#34;:{&#34;r&#34;:0.92941176891326904,&#34;g&#34;:0.40784314274787903,&#34;b&#34;:0.14117647707462311,&#34;a&#34;:1.0},&#34;position&#34;:0.17567500472068787},{&#34;color&#34;:{&#34;r&#34;:1.0,&#34;g&#34;:1.0,&#34;b&#34;:1.0,&#34;a&#34;:0.0},&#34;position&#34;:1.0}],&#34;stopsVar&#34;:[{&#34;color&#34;:{&#34;r&#34;:0.92941176891326904,&#34;g&#34;:0.40784314274787903,&#34;b&#34;:0.14117647707462311,&#34;a&#34;:1.0},&#34;position&#34;:0.0},{&#34;color&#34;:{&#34;r&#34;:0.92941176891326904,&#34;g&#34;:0.40784314274787903,&#34;b&#34;:0.14117647707462311,&#34;a&#34;:1.0},&#34;position&#34;:0.17567500472068787},{&#34;color&#34;:{&#34;r&#34;:1.0,&#34;g&#34;:1.0,&#34;b&#34;:1.0,&#34;a&#34;:0.0},&#34;position&#34;:1.0}],&#34;transform&#34;:{&#34;m00&#34;:-4.8674862663416248e-15,&#34;m01&#34;:79.492080688476562,&#34;m02&#34;:0.00010681152343750,&#34;m10&#34;:79.492080688476562,&#34;m11&#34;:4.8674862663416248e-15,&#34;m12&#34;:-4.8674862663416248e-15},&#34;opacity&#34;:1.0,&#34;blendMode&#34;:&#34;NORMAL&#34;,&#34;visible&#34;:true}"/>
<circle cx="5.96191" cy="5.96191" r="5.96191" transform="matrix(-1 0 0 1 45.3125 67.5684)" fill="#ED6824"/>
<defs>
<clipPath id="paint0_angular_4804_18669_clip_path"><path d="M0.000106812 39.746C0.000106812 61.6972 17.795 79.4921 39.7461 79.4921C61.6973 79.4921 79.4922 61.6972 79.4922 39.746C79.4922 17.7949 61.6973 0 39.7461 0C17.795 0 0.000106812 17.7949 0.000106812 39.746ZM67.6071 39.746C67.6071 55.1332 55.1333 67.607 39.7461 67.607C24.359 67.607 11.8852 55.1332 11.8852 39.746C11.8852 24.3589 24.359 11.8851 39.7461 11.8851C55.1333 11.8851 67.6071 24.3589 67.6071 39.746Z"/></clipPath></defs>
</svg>
