<svg width="180" height="51" viewBox="0 0 180 51" fill="none" xmlns="http://www.w3.org/2000/svg">
<g clip-path="url(#clip0_554_37)">
<path d="M54.7698 19.5393H45.5547V7.11035H46.7962V18.373H52.5549V7.11035H53.7983V18.373H55.9295V21.3971H54.7698V19.5393Z" fill="#6291B4"/>
<path d="M57.806 7.11035H59.0494V12.3228H65.3823V7.11035H66.6257V19.5393H65.3823V13.5404H59.0494V19.5393H57.806V7.11035Z" fill="#6291B4"/>
<path d="M68.4185 8.32608V7.11035H75.2343V8.32608H72.4604V19.5393H71.1923V8.32608H68.4185Z" fill="#6291B4"/>
<path d="M86.8108 19.5393H85.516V10.0091L77.3143 19.5393H77.0348V7.11035H78.2782V16.8039L86.5313 7.11035H86.8108V19.5393Z" fill="#6291B4"/>
<path d="M45.5737 26.2729H58.2186V44.091H56.4353V27.9693H47.3552V44.091H45.5737V26.2729Z" fill="#6291B4"/>
<path d="M62.1237 26.2729H65.6751C67.7113 26.2729 69.0859 26.3622 69.7969 26.5389C70.8159 26.7877 71.6487 27.3044 72.2951 28.0833C72.9415 28.8621 73.2647 29.8423 73.2647 31.02C73.2647 32.2072 72.9491 33.1855 72.3198 33.9568C71.6886 34.728 70.8197 35.2466 69.7132 35.5125C68.9052 35.7063 67.3938 35.8032 65.1789 35.8032H63.907V44.0872H62.1256V26.2729H62.1237ZM63.9051 28.0168V34.0612L66.9242 34.0973C68.1448 34.0973 69.0364 33.9872 69.603 33.7649C70.1695 33.5427 70.6125 33.1836 70.9357 32.6897C71.2589 32.1939 71.4205 31.6393 71.4205 31.0276C71.4205 30.4311 71.2589 29.886 70.9357 29.3902C70.6125 28.8944 70.1866 28.5411 69.6562 28.3321C69.1258 28.1231 68.2607 28.0168 67.0554 28.0168H63.9051Z" fill="#6291B4"/>
<path d="M84.8981 25.8247C87.5997 25.8247 89.8602 26.7251 91.6797 28.5259C93.4991 30.3267 94.4098 32.5435 94.4098 35.1764C94.4098 37.7845 93.501 39.9975 91.6854 41.8135C89.8697 43.6295 87.6548 44.5394 85.0445 44.5394C82.3999 44.5394 80.1679 43.6352 78.3485 41.8268C76.529 40.0184 75.6202 37.8301 75.6202 35.2618C75.6202 33.5503 76.0347 31.9623 76.8636 30.5015C77.6925 29.0407 78.8219 27.8953 80.2535 27.0689C81.6832 26.2388 83.2326 25.8247 84.8981 25.8247ZM84.978 27.5571C83.6585 27.5571 82.4075 27.901 81.2269 28.5886C80.0462 29.2762 79.1222 30.2013 78.4587 31.3639C77.7952 32.5283 77.4625 33.8258 77.4625 35.2561C77.4625 37.3742 78.1983 39.1617 79.666 40.6206C81.1356 42.0794 82.9056 42.8089 84.978 42.8089C86.362 42.8089 87.6434 42.4727 88.8203 41.8021C89.999 41.1315 90.9173 40.214 91.577 39.0496C92.2367 37.8852 92.5675 36.5934 92.5675 35.1707C92.5675 33.7574 92.2367 32.477 91.577 31.3335C90.9173 30.1899 89.9876 29.2744 88.7918 28.5886C87.5921 27.901 86.3221 27.5571 84.978 27.5571Z" fill="#6291B4"/>
<path d="M99.3225 44.091H97.5392V26.2729H106.475V28.0168H99.3225V44.091Z" fill="#6291B4"/>
<path d="M108.597 26.2729H112.148C114.184 26.2729 115.559 26.3622 116.27 26.5389C117.289 26.7877 118.122 27.3044 118.768 28.0833C119.414 28.8621 119.738 29.8423 119.738 31.02C119.738 32.2072 119.422 33.1855 118.793 33.9568C118.161 34.728 117.293 35.2466 116.186 35.5125C115.378 35.7063 113.867 35.8032 111.652 35.8032H110.38V44.0872H108.598V26.2729H108.597ZM110.38 28.0168V34.0612L113.399 34.0973C114.62 34.0973 115.511 33.9872 116.078 33.7649C116.644 33.5427 117.087 33.1836 117.411 32.6897C117.734 32.1939 117.895 31.6393 117.895 31.0276C117.895 30.4311 117.734 29.886 117.411 29.3902C117.087 28.8944 116.661 28.5411 116.131 28.3321C115.602 28.1231 114.736 28.0168 113.53 28.0168H110.38Z" fill="#6291B4"/>
<path d="M122.892 26.2729H133.113V28.0168H124.675V33.6015H133.04V35.3454H124.675V42.3472H133.04V44.091H122.892V26.2729Z" fill="#6291B4"/>
<path d="M152.377 29.5803L150.971 30.6593C150.195 29.6506 149.263 28.885 148.176 28.3646C147.088 27.8441 145.894 27.5838 144.594 27.5838C143.172 27.5838 141.854 27.9258 140.641 28.6077C139.428 29.2916 138.489 30.2072 137.824 31.3583C137.156 32.5094 136.824 33.8031 136.824 35.241C136.824 37.4123 137.569 39.2264 139.061 40.6796C140.552 42.1327 142.434 42.8603 144.704 42.8603C147.202 42.8603 149.29 41.8839 150.972 39.9292L152.379 40.9949C151.49 42.1251 150.381 42.9989 149.05 43.6163C147.721 44.2337 146.237 44.5433 144.596 44.5433C141.476 44.5433 139.016 43.5061 137.213 41.4299C135.702 39.6785 134.947 37.5623 134.947 35.0834C134.947 32.4753 135.864 30.2812 137.693 28.4994C139.523 26.7195 141.816 25.8286 144.573 25.8286C146.238 25.8286 147.74 26.1572 149.083 26.8164C150.421 27.4699 151.52 28.3931 152.377 29.5803Z" fill="#6291B4"/>
<path d="M172.14 29.5803L170.734 30.6593C169.958 29.6506 169.026 28.885 167.939 28.3646C166.851 27.8441 165.657 27.5838 164.357 27.5838C162.935 27.5838 161.617 27.9258 160.404 28.6077C159.191 29.2916 158.252 30.2072 157.587 31.3583C156.919 32.5094 156.587 33.8031 156.587 35.241C156.587 37.4123 157.332 39.2264 158.824 40.6796C160.315 42.1327 162.197 42.8603 164.467 42.8603C166.965 42.8603 169.053 41.8839 170.735 39.9292L172.142 40.9949C171.253 42.1251 170.144 42.9989 168.813 43.6163C167.484 44.2337 166 44.5433 164.359 44.5433C161.239 44.5433 158.779 43.5061 156.976 41.4299C155.465 39.6785 154.71 37.5623 154.71 35.0834C154.71 32.4753 155.627 30.2812 157.456 28.4994C159.286 26.7195 161.579 25.8286 164.336 25.8286C166.001 25.8286 167.503 26.1572 168.846 26.8164C170.184 27.4699 171.283 28.3931 172.14 29.5803Z" fill="#6291B4"/>
<path d="M39.6439 6.46045C40.3416 6.46045 40.623 6.95244 40.2694 7.55461L30.2063 24.8085C29.7006 25.6215 29.1892 25.4316 28.8336 24.8294L18.6869 7.55651C18.3333 6.95434 18.6147 6.46235 19.3143 6.46235H39.6439V6.46045Z" fill="#F9933E"/>
<path d="M15.8484 39.6441C15.5157 39.0837 15.5061 38.1606 15.8294 37.5945L21.8904 27.1601C22.2839 26.4458 22.6528 26.1001 23.552 26.1001H28.2993C28.9514 26.1001 29.2765 26.5731 28.9514 27.1373L19.377 43.5915C19.0519 44.1575 18.5329 44.1613 18.202 43.601L15.8484 39.6441Z" fill="#F9933E"/>
<path d="M8.58961 25.5819C7.9356 25.5819 7.67323 25.1222 8.00404 24.5599L14.2324 13.9583C14.5651 13.3961 15.105 13.3961 15.4358 13.9583L21.6642 24.5599C21.995 25.1222 21.7307 25.5819 21.0767 25.5819H8.58961Z" fill="#F9933E"/>
</g>
<defs>
<clipPath id="clip0_554_37">
<rect width="180" height="51" fill="white"/>
</clipPath>
</defs>
</svg>
